<svg xmlns="http://www.w3.org/2000/svg" xmlns:xlink="http://www.w3.org/1999/xlink" width="600" height="300" stroke="#000" stroke-linecap="round" stroke-linejoin="round" fill="#fff" fill-rule="evenodd"><style><![CDATA[.B{fill:none}.C{stroke:#434343}.D{stroke-width:2}.E{stroke-width:3}.F{stroke:none}.G{stroke-linejoin:miter}.H{fill-rule:nonzero}]]></style><defs><path d="M0 0l4 5h-8z" id="A" class="F"/><path id="B" d="M117.23 34.4a1.8 1.8 0 0 0 3.08 1.27 1.8 1.8 0 0 0-1.27-3.08 1.8 1.8 0 0 0-1.81 1.81z"/><path id="C" d="M435.5 95.5h55v2.23h-55z"/></defs><path d="M47.06 35.95c-.06.68-.64 1.24-1.35 1.3-8.6.9-15.2 9.1-15.2 19.08 0 10.58 7.57 19.16 16.9 19.16h64.5c10.27 0 18.6-9.07 18.6-20.25 0-10.7-7.64-19.48-17.32-20.2-.74-.05-1.34-.55-1.48-1.25-2.16-10.75-12.13-18.83-23.9-18.83-7.66 0-14.48 3.36-18.9 8.7-.44.53-1.16.76-1.8.5-1.7-.7-3.5-1.02-5.52-1.02-7.62 0-13.87 5.62-14.52 12.8z" class="B C D G"/><path fill="#3d85c6" d="M-.5 195.5h601v105H-.5z" class="F"/><ellipse cx="143.66" cy="268.05" fill="#000" fill-opacity=".4" rx="118.16" ry="3.49" stroke-opacity=".02"/><g class="B D"><path d="M116.95 206.72c-7.76-.02-15.52-.04-15.25 3.82.28 3.85 8.58 11.6 0 15.24-8.57 3.66-34.03 3.23-45.74 7.63s-9.67 13.64-7.63 22.87"/><path d="M113.14 202.9c-1 8.47-2.03 16.94-7.62 19.06s-15.76-2.12-22.87 0c-7.12 2.12-11.18 10.6-15.25 19.06"/></g><path d="M208.93 128.58l24.3 29.74-4.57 4.57-29.95-24.07z"/><path d="M13.8 0l28.13 25.1-9.53 13.34-32.4-22z" transform="matrix(.4226 -.9063 .9063 .4226 162.9985 155.6126)"/><path d="M0 31.17L100.18 0l9.32 21.15-94.16 39.93z" transform="matrix(.8192 .5736 -.5736 .8192 106.2584 82.2698)"/><path d="M53.1 238.18h117.22v14.3H53.1z"/><path d="M77.88 225.8h89.82v12.4H77.88zm33.74-19.07h45.74v19.06h-45.74z"/><g transform="matrix(.9962 .0872 -.0872 .9962 198.6132 126.8407)"><circle cx="8.39" cy="8.39" r="8.39"/><circle cx="8.52" cy="8.26" r="6.97"/></g><path d="M0 0h18.58v4.68H0z" transform="matrix(.1736 .9848 -.9848 .1736 230.2913 158.6048)"/><path d="M229 155.57h18.58v4.68H229z"/><path d="M248.33 155.82l5.86 18.5-2.25.32-7.85-16.84zm-17.1 17l16.84 7.85-1.5 1.27-17.3-4.88z"/><circle cx="3.66" cy="3.66" r="3.66" transform="matrix(.9962 .0872 -.0872 .9962 225.2293 154.5655)"/><circle cx="2.8" cy="2.8" r="2.8" transform="matrix(.9962 .0872 -.0872 .9962 243.3147 155.1566)"/><circle cx="2.8" cy="2.8" r="2.8" transform="matrix(.9962 .0872 -.0872 .9962 228.8347 172.3166)"/><g transform="matrix(.8192 .5736 -.5736 .8192 179.0174 130.4125)"><circle cx="14.1" cy="14.1" r="14.1"/><circle cx="14.32" cy="13.89" r="11.72"/></g><path d="M0 0h77.5v37.37H0z" transform="matrix(.5 .866 -.866 .5 111.7724 124.1015)"/><circle cx="134.11" cy="197.96" r="24.78"/><circle cx="134.49" cy="197.58" r="20.59"/><circle cx="92.18" cy="128.58" r="21.73"/><circle cx="92.51" cy="128.24" r="18.05"/><path d="M40.7 252.2h133.42v15.53H40.7z"/><rect x="205.5" y="127.62" rx="2" width="60" height="63.75" stroke="#f90" class="B D"/><g transform="translate(153.4 15.5)"><g transform="translate(.3)" class="C"><path d="M0 90V5.63" class="B D"/><use fill="#434343" xlink:href="#A" transform="matrix(1.25 0 0 1.25 0 0)" stroke-width="1.6"/></g><g transform="translate(.3 90)" class="C"><path d="M0 0h147.9" class="B D"/><use fill="#434343" transform="matrix(0 1.25 -1.25 0 153.525 -153.525)" x="122.82" xlink:href="#A" stroke-width="1.6"/></g><g class="B"><path d="M1.06 47.13H154.9" stroke-dasharray="12 16" class="C"/><circle cx="50.79" cy="70.41" stroke="#f65856" r="15" class="D"/></g><g transform="matrix(-1 0 0 -1 153.84 73.76)" stroke="#f90" fill="#f90" class="E"><g class="G H"><path d="M18.3 43.7a1.8 1.8 0 1 0 3.61 0 1.8 1.8 0 1 0-3.6-.01zM0 37.2A1.8 1.8 0 0 0 1.81 39a1.8 1.8 0 0 0 1.27-.53 1.8 1.8 0 0 0-1.27-3.08A1.8 1.8 0 0 0 0 37.2z"/><use xlink:href="#B"/><path d="M67.76 40.52a1.8 1.8 0 1 0 3.61 0 1.8 1.8 0 1 0-3.61 0zm-16.5-7.45a1.8 1.8 0 0 0 1.81 1.8 1.8 1.8 0 0 0 0-3.61 1.8 1.8 0 0 0-1.81 1.81z"/><use xlink:href="#B" x="-82.43" y="9.26"/><path d="M150.22 53.8a1.8 1.8 0 0 0 1.81 1.8 1.8 1.8 0 1 0 0-3.61 1.8 1.8 0 0 0-1.81 1.81z"/><use xlink:href="#B" x="16.17" y="16.1"/><path d="M100.73 1.8a1.8 1.8 0 0 0 .53 1.27 1.8 1.8 0 0 0 1.28.53 1.8 1.8 0 0 0 1.27-.53 1.8 1.8 0 0 0 .53-1.27 1.8 1.8 0 0 0-.53-1.28 1.8 1.8 0 0 0-1.27-.53 1.8 1.8 0 0 0-1.81 1.81z"/><use xlink:href="#B" x="-32.97" y="7.4"/></g><path d="M151.4 54.44l-16.94-4.24"/><path d="M134.73 50.3l-15.9-15.9m-.01 0L102.38 1.5"/><path d="M85.93 41.83l16.97-40.3"/><path d="M85.93 41.83l-15.9-1.6m-.03.54l-16.97-7.43"/><path d="M53.04 33.34L36.6 43.95"/><path d="M36.6 43.95H20.16"/><path d="M20.16 43.96L2.12 37.6"/></g></g><rect x="360.5" y="60.5" width="145" height="225" rx="2" fill-opacity=".67" class="C D"/><g class="B"><path d="M394.1 124.9c-1.8 0-3.62-.01-3.56.9.07.9 2 2.7 0 3.56-2 .86-7.95.75-10.68 1.78-2.74 1.03-2.26 3.2-1.78 5.34"/><path d="M393.22 124c-.23 1.98-.47 3.96-1.78 4.45-1.3.5-3.68-.5-5.34 0-1.66.5-2.6 2.47-3.56 4.45"/></g><path d="M2.4 0l5.67 6.94L7 8 0 2.4z" transform="matrix(-.866 -.5 .5 -.866 415.3951 110.8878)"/><path d="M3.22 0L9.8 5.86 7.57 8.98 0 3.84z" transform="matrix(.4226 -.9063 .9063 .4226 404.8698 112.9634)"/><path d="M0 7.28L23.4 0l2.17 4.94-22 9.32z" transform="matrix(.8192 .5736 -.5736 .8192 391.6226 95.8234)"/><path d="M379.2 132.24h27.38v3.34H379.2z"/><path d="M385 129.35h20.98v2.9H385z"/><path d="M392.87 124.9h10.68v4.45h-10.68z"/><g transform="matrix(-.8192 -.5736 .5736 -.8192 415.2113 111.2497)"><circle cx="1.96" cy="1.96" r="1.96"/><circle cx="1.99" cy="1.93" r="1.63"/></g><path d="M0 0h4.34v1.1H0z" transform="matrix(.342 -.9397 .9397 .342 412.511 101.121)"/><path d="M0 0h4.34v1.1H0z" transform="matrix(-.866 -.5 .5 -.866 412.4243 101.8913)"/><path d="M1 0l1.37 4.32-.53.07L0 .46z" transform="matrix(-.866 -.5 .5 -.866 409.3919 100.0753)"/><path d="M.46 0L4.4 1.83l-.35.3L0 1z" transform="matrix(-.866 -.5 .5 -.866 414.3903 98.3766)"/><circle cx=".86" cy=".86" r=".86" transform="matrix(-.8192 -.5736 .5736 -.8192 413.0638 102.5296)"/><circle cx=".65" cy=".65" r=".65" transform="matrix(-.8192 -.5736 .5736 -.8192 409.4696 100.2953)"/><circle cx=".65" cy=".65" r=".65" transform="matrix(-.8192 -.5736 .5736 -.8192 414.4096 98.5153)"/><g transform="matrix(.8192 .5736 -.5736 .8192 408.6021 107.0779)"><circle cx="3.29" cy="3.29" r="3.29"/><circle cx="3.35" cy="3.25" r="2.74"/></g><path d="M0 0h18.1v8.73H0z" transform="matrix(.5 .866 -.866 .5 392.9009 105.5925)"/><circle cx="398.13" cy="122.85" r="5.79"/><circle cx="398.22" cy="122.76" r="4.81"/><circle cx="388.32" cy="106.64" r="5.07"/><circle cx="388.41" cy="106.57" r="4.22"/><path d="M376.3 135.5h31.16v3.63H376.3z"/><rect x="370.5" y="89.5" width="56" height="56" rx="2" stroke="#f90" class="B D"/><g fill="#f90" class="F"><use xlink:href="#C"/><use xlink:href="#C" y="5.18"/><path d="M435.5 105.86h47.3v2.23h-47.3zm0 5.1h37.4v2.23h-37.4z"/></g><rect x="370.5" y="154.5" width="56" height="56" rx="2" class="B C"/><g fill="#4f4f4f" class="F"><use xlink:href="#C" y="65"/><use xlink:href="#C" y="70.18"/><path d="M435.5 170.86h47.3v2.23h-47.3zm0 5.1h37.4v2.23h-37.4z"/></g><rect x="370.5" y="219.5" width="56" height="56" rx="2" class="B C"/><g fill="#4f4f4f" class="F"><use xlink:href="#C" y="130"/><use xlink:href="#C" y="135.18"/><path d="M435.5 235.86h47.3v2.23h-47.3zm0 5.1h37.4v2.23h-37.4z"/></g><g stroke-linecap="butt" class="C G H"><path d="M389.8 204.34h19.3l-2.15-10.73h-15l-2.15 10.73"/><path d="M392.76 194.2v9.43h-2.1l1.75-9.43h.35m13.4 0v8.9l-4.1.52h6.2l-1.75-9.43h-.35"/><path d="M398.94 194.26v9.43l-6.18-.04 4.17-.52 1.25-8.87h.76m1.06 0v9.43l2.1-.04-1.33-9.4H400"/><path d="M406.52 194.2l-5.77.04.08.58h5.34l.35-.62"/><path d="M407.2 194.26h-15.5v-.65h15.5v.65m2.07 10.08H389.6v-.65h19.66v.65m-16.8-9.5h6.48v-.58h-6.48v.58"/><path d="M398.1 194.84l.84-.42H400l.84.42-.08-.58h-2.57l-.08.58m-5.35 0l-.38-.43h-.58l.03-.15h.93v.58m13.4 0l.38-.43h.58l-.03-.15h-.93v.58m7.4-31.22c0 .98-.8 1.78-1.78 1.78s-1.78-.8-1.78-1.78.8-1.78 1.78-1.78 1.78.8 1.78 1.78"/><path d="M404.12 167.4l-21.62 6c-.37.1-.75-.1-.86-.48l-1.1-4c-.1-.37.1-.76.48-.86l11.88-3.3c.52-.15 1.07-.15 1.58 0l9.65 2.65"/><path d="M383.58 173.1c-1.25-1.26-1.25-3.3 0-4.56 1.26-1.25 3.3-1.25 4.56 0 .3.3.52.63.67 1l1.8 2.65 15.74 15.75-3.4 3.4-15.75-15.74-2.65-1.8c-.36-.15-.7-.37-1-.67"/><path d="M393.5 192.54h11a3.2 3.2 0 0 0 3.18-3.18v-.5a3.2 3.2 0 0 0-3.18-3.18h-11c-1.17 0-2.13.96-2.13 2.13v2.6c0 1.17.96 2.13 2.13 2.13m7.12-21.9l-7.47 2.08c-.98.27-2-.3-2.28-1.3l-.6-2.14c-.22-.8.25-1.6 1.04-1.83l11.9-3.32-1.3 5.16c-.16.65-.66 1.16-1.3 1.34"/><path d="M410.2 166.5l-14.62 4.07-1.02-3.64c-.17-.6.2-1.22.8-1.4l13.53-3.77 2 .6.66 2.37-1.34 1.76m-4.28 22.6c0 1.02-.82 1.84-1.84 1.84s-1.84-.82-1.84-1.84.82-1.84 1.84-1.84 1.84.82 1.84 1.84m-17.43-18.07a2.3 2.3 0 1 1-4.6.01 2.3 2.3 0 0 1 2.3-2.3 2.3 2.3 0 0 1 2.29 2.3"/><path d="M387.84 171.02c0 .9-.74 1.64-1.64 1.64s-1.64-.74-1.64-1.64.73-1.64 1.64-1.64c.9 0 1.64.73 1.64 1.64m17.4 18.08c0 .63-.52 1.15-1.15 1.15-.64 0-1.16-.52-1.16-1.15 0-.64.52-1.16 1.16-1.16.63 0 1.15.52 1.15 1.16"/><path d="M387.22 175.57l10.1 10.1h6.76s-4.67-.94-6.44-1.95c-1.78-1-10.43-8.16-10.43-8.16m24.3-9.68h0c-.2.04-.4-.1-.44-.3l-.7-3.46c-.04-.2.1-.4.3-.44s.4.1.45.3l.7 3.46c.04.2-.1.4-.3.45m-5.88 27.7H393.3c-.3 0-.53-.24-.53-.54h0c0-.3.24-.53.53-.53h12.34c.3 0 .53.24.53.53h0c0 .3-.24.54-.53.54m8.03-30.46c.1.4.05.73-.1.77s-.35-.24-.45-.63c-.1-.38-.05-.73.1-.77.16-.03.36.25.45.63m-24.13 98.9h7.97v-1.72h-7.97v1.72m7.18-9.28c-.3-.06-7.63-1.42-10.33-5.36-2.7-3.95-1.07-9.98-1-10.23l.04-.14.14-.01c.07-.01 6.84-.67 9.5-2.75 1.47-1.16 2.46-3.56 3.34-5.68.83-2 1.48-3.6 2.4-3.83 1.95-.53 3.85.4 5.07 2.46a8.4 8.4 0 0 1 .86 4.94l-.4-.06c0-.03.38-2.64-.8-4.66-1.12-1.9-2.84-2.75-4.6-2.28-.7.2-1.4 1.84-2.1 3.6-.9 2.17-1.9 4.62-3.47 5.85-2.56 2-8.53 2.7-9.57 2.82-.23.92-1.4 6.27.98 9.74 2.6 3.8 9.98 5.17 10.06 5.2l-.08.4"/><path d="M400.02 255.92c-.62.27-1.56.48-2.5-.01-1.63-.85-3.5-4.57-4.1-5.45-.58-.9-6.83-7.95-7.37-8.66-.55-.7-3-1.9-3.53-4-.3-1.22.2-1.9.48-2.2l-.02-.01s.83-.98 2.4-.35c2 .8 2.87 3.4 3.5 4.02s6.83 7.74 7.63 8.43 4.24 3.04 4.87 4.76c.4 1.1-.02 2.06-.4 2.63-.1.16-.73.7-.98.82"/><path d="M390.4 258.43h9.5l2.33-4.37c.8-1.48-.28-3.26-1.95-3.26h-9.9a1.9 1.9 0 0 0-1.9 1.9v3.83a1.9 1.9 0 0 0 1.9 1.9"/><path d="M399.92 258.43l-.78 1.52c-.12.23-.36.37-.62.37h-8.9c-.28 0-.5-.2-.54-.48l-.05-.4c-.07-.53.35-1 .88-1h10m-10-22.8l11.4-8.06-1.85-2.62-11.4 8.06 1.85 2.62"/><path d="M389.23 239.65s-.38 1.3-.88 1.8-.9.9 0 1.88l6.35 6.85a303.5 303.5 0 0 0 5.59.61h-6.67l-8.3-9.9 3.92-1.25m1.1-8.32s1.05-.28 1.88.47 1.4.66 1.72.5c.26-.14 3.5-2.5 4.94-3.56.35-.26-1.2-1.48-.55-2.94.33-.73 1.76 2.7 1.76 2.7l-7.9 5.58-1.86-2.73"/><path d="M383.8 233.75l4.72-2.27c1.28-.6 2.8-.07 3.42 1.2.34.7.32 1.5.02 2.17h0c-.1.22-.23.42-.4.6L389.3 239c-.38.88-1.05 1.62-1.98 2.07a4.1 4.1 0 0 1-5.42-1.9c-.97-2.03-.12-4.45 1.9-5.42m19.88-5.87l-1.92 1.4-.9-1.24 1.92-1.4.9 1.23"/><path d="M401.2 228.54l1.87-1.47s.01.45-.38.95c-.3.37-.4.38-.43.56-.04.17.04.3.04.3l-.55.4-.55-.75"/><path d="M403.15 225.25a2.5 2.5 0 0 1-1.52 3.18 2.5 2.5 0 0 1-3.19-1.52 2.5 2.5 0 0 1 1.53-3.19 2.5 2.5 0 0 1 3.18 1.53m-2.75 28.35c0 .6-.47 1.06-1.06 1.06-.58 0-1.05-.47-1.05-1.06 0-.58.47-1.05 1.05-1.05.6 0 1.06.47 1.06 1.05m5.46-22.03l-1.24.9-2.52-3.44 1.24-.9 2.52 3.44"/><path d="M407.1 232.56l-1.92 1.4-.9-1.24 1.92-1.4.9 1.23"/><path d="M407.75 233.72l-1.67 1.22-.78-1.07 1.67-1.22.78 1.07m-.12 8.92l.37.15.37-.88-.37-.16-.37.9m.93-1.12l-.42-.17 1.05-2.53a1.2 1.2 0 0 0-.13-1.16l-1.72-2.37.37-.27 1.72 2.37a1.7 1.7 0 0 1 .2 1.6l-1.06 2.52"/><path d="M407.87 241.7l.64.27.63-1.5-.64-.27-.63 1.5m-5.77-12.66l2.52 3.44 1.24-.9s-1 .5-1.2.3-2.08-2.7-2.06-2.83.73-.9.73-.9l-1.24.9m6.4 6.3l-1.07.78-1.04-1.42 1.07-.78 1.04 1.42m-21.38 34.24h12.4l-1.38-7.57h-9.64l-1.38 7.57"/><path d="M389.02 262.47v6.65h-1.35l1.12-6.65h.23m8.6 0v6.65h1.35l-1.13-6.65h-.22m-4.6.03v6.65h-1.06l.58-6.65h.48m.3 0v6.65h1.06l-.57-6.65h-.5"/><path d="M397.85 262.47h.37l1.2 6.65h-.46l-1.12-6.65"/><path d="M398.4 262.5h-10.16v-.45h10.16v.45m1.37 7.1h-12.9v-.54h12.9v.54"/></g><rect x="393" y="9.5" width="80" height="66" rx="2" class="F"/><path d="M424.53 44.47l10.3 10.3c-.78 2.4-.23 5.16 1.68 7.07 1.77 1.76 4.25 2.37 6.52 1.83l-4.43-4.42 1.08-4.05 4.04-1.08 4.43 4.43c.54-2.27-.07-4.75-1.83-6.52-1.9-1.9-4.66-2.47-7.07-1.68l-10.3-10.3a6.9 6.9 0 0 0-8.18-8.9l4.42 4.43-1.08 4.04-4.04 1.08-4.43-4.42a6.9 6.9 0 0 0 1.83 6.5c1.92 1.9 4.66 2.47 7.07 1.68zm-6.93 18.4a2.3 2.3 0 0 0 3.84 0l7.88-7.88-.46-2.78.62-.63-2.84-2.84-.62.63-2.78-.47-7.9 7.9a2.3 2.3 0 0 0 0 3.83l2.25 2.25zm18.64-23.72l-3.02 3.02 2.84 2.84 3.02-3.02 1.36 1.36-.04.04c-.55.54-.55 1.42 0 1.97l1.48 1.48a1.4 1.4 0 0 0 1.98 0l5.68-5.68a1.4 1.4 0 0 0 0-1.97l-1.5-1.5a1.4 1.4 0 0 0-1.97 0l-.04.04-6.3-6.3c-.58-.58-1.7-.84-2.48-.55l-5.42 1.93c-.78.28-.94 1-.36 1.57l4.77 4.77zm23.16-25.47h-5.18v-2.62c0-1.64-1.33-2.97-2.98-2.97-1.64 0-2.97 1.33-2.97 2.97v2.62h-6.8v-2.62c0-1.64-1.33-2.97-2.98-2.97-1.64 0-2.97 1.33-2.97 2.97v2.62h-6.8v-2.62c0-1.64-1.34-2.97-2.98-2.97s-2.97 1.33-2.97 2.97v2.62H416v-2.62c0-1.64-1.34-2.97-2.98-2.97s-2.97 1.33-2.97 2.97v2.62h-5.18a5.1 5.1 0 0 0-5.1 5.1V68.6a5.1 5.1 0 0 0 5.1 5.09h54.53a5.1 5.1 0 0 0 5.09-5.09V18.77a5.1 5.1 0 0 0-5.09-5.1zm-1.15 53.23h-52.23V27.83h52.23V66.9z" stroke-width="2.31" class="B C G"/></svg>